# xmcd
#
# Track frame offsets:
#	150
#	16415
#	28681
#	44419
#	61524
#	81758
#	99355
#	117732
#	135329
#	151676
#	167353
#	186423
#	202919
#	221972
#	238482
#	251422
#	269356
#	293307
#	316270
#
# Disc length: 4442 seconds
#
# Revision: 0
# Processed by: cddbd v1.5.1PL0 Copyright (c) Steve Scherf et al.
# Submitted via: audiograbber 1.83.01
#
DISCID=00115813
DTITLE=—борник - R`n`B EXPRESS
DYEAR=2005
DGENRE=R&B
TTITLE0=Mashonda - Back of da Club
TTITLE1=Ciara feat. Missy Elliott - 1 2 Step
TTITLE2=Sean Paul - Well Be Burning
TTITLE3=Jennifer Lopez - Get Right
TTITLE4=Mario feat. Jadakiss and TI - Let Me Love you
TTITLE5=Tori Alamase - Don`t Cha
TTITLE6=Little Kim Stewart - All this Love for You
TTITLE7=Usher feat. Bad Seed - Ride
TTITLE8=Xzibit feat. Busta Rhymes - Tough Guy
TTITLE9=Nas feat. Ludacriss and Doug - Virgo
TTITLE10=Ludacriss fest. DMX - Put Your Money
TTITLE11=Baby Bash feat. Akon - I`m Back
TTITLE12=Nina Sky feat. Pitbull - Turning Me on
TTITLE13=Nelly - N Dey Say
TTITLE14=Nitty - Hey Bitty
TTITLE15=Young Bloodz feat. Young Buck of G-Unit - Datz Me
TTITLE16=Lilwayne - Earthquake
TTITLE17=bebe Winans - My Sweet Lord
TTITLE18=Cuban Link - Sugar Daddy
EXTD=
EXTT0=
EXTT1=
EXTT2=
EXTT3=
EXTT4=
EXTT5=
EXTT6=
EXTT7=
EXTT8=
EXTT9=
EXTT10=
EXTT11=
EXTT12=
EXTT13=
EXTT14=
EXTT15=
EXTT16=
EXTT17=
EXTT18=
PLAYORDER=
